<?xml version="1.0" standalone="no"?>
<!DOCTYPE svg PUBLIC "-//W3C//DTD SVG 20010904//EN"
 "http://www.w3.org/TR/2001/REC-SVG-20010904/DTD/svg10.dtd">
<svg version="1.0" xmlns="http://www.w3.org/2000/svg"
 width="16.000000pt" height="16.000000pt" viewBox="0 0 16.000000 16.000000"
 preserveAspectRatio="xMidYMid meet">
<metadata>
Created by potrace 1.11, written by Peter Selinger 2001-2013
</metadata>
<g transform="translate(0.000000,16.000000) scale(0.003941,-0.003941)"
fill="#000000" stroke="none">
<path d="M3895 4018 c-11 -6 -45 -34 -75 -62 -193 -178 -483 -398 -705 -533
-49 -30 -99 -59 -110 -66 -53 -32 -98 -58 -180 -101 -49 -27 -96 -54 -103 -60
-7 -7 -31 -66 -53 -132 -22 -65 -69 -177 -105 -249 -64 -129 -174 -319 -173
-300 0 6 22 105 48 220 51 222 52 243 11 280 -43 39 -94 24 -345 -102 -444
-222 -794 -523 -1028 -883 -58 -90 -167 -300 -167 -323 0 -7 -4 -17 -9 -22
-16 -17 -68 -195 -92 -310 -16 -82 -23 -153 -25 -279 l-2 -170 -265 -270
c-146 -149 -305 -311 -354 -361 -114 -116 -133 -141 -133 -177 0 -43 48 -88
94 -88 33 0 51 11 122 75 6 6 26 24 45 40 19 17 81 73 139 125 58 52 141 126
184 165 43 38 93 83 111 100 18 16 68 62 111 100 43 39 88 79 100 90 12 11 55
49 95 85 40 36 77 70 83 75 10 9 80 72 240 215 21 19 44 40 50 45 6 6 51 46
101 90 49 44 94 85 100 91 5 5 51 46 100 90 50 43 92 81 95 84 3 3 45 41 95
85 49 44 112 101 140 126 27 25 70 63 95 85 45 38 45 38 14 4 -38 -42 -162
-175 -224 -240 -53 -56 -267 -282 -340 -360 -29 -30 -91 -96 -138 -146 -302
-317 -393 -417 -370 -410 7 3 38 7 68 10 257 25 646 224 1106 566 259 193 559
455 567 497 11 60 -33 113 -93 113 -17 0 -77 -11 -132 -25 -55 -14 -102 -24
-104 -22 -2 2 53 38 123 79 201 118 341 179 513 224 109 28 110 28 254 219
236 311 424 674 533 1025 36 118 87 329 98 410 3 25 10 72 15 105 16 102 13
124 -21 156 -33 31 -69 37 -104 17z"/>
</g>
</svg>
